<mxfile host="app.diagrams.net" modified="2023-04-01T16:08:49.028Z" agent="5.0 (X11)" version="20.7.4" etag="Jm5OXzQ2-tBk2fefQkF0" type="github">
  <diagram id="54UWytxvsrxIeIBrwi4A" name="Page-1">
    <mxGraphModel dx="2222" dy="766" grid="0" gridSize="10" guides="1" tooltips="1" connect="1" arrows="1" fold="1" page="1" pageScale="1" pageWidth="850" pageHeight="1100" math="0" shadow="0">
      <root>
        <mxCell id="0" />
        <mxCell id="1" parent="0" />
        <mxCell id="UEDnsZkJq_D29mXGv6O8-1" value="" style="rounded=0;whiteSpace=wrap;html=1;" vertex="1" parent="1">
          <mxGeometry x="80" y="160" width="440" height="320" as="geometry" />
        </mxCell>
        <mxCell id="UEDnsZkJq_D29mXGv6O8-2" value="&lt;b&gt;Pod&lt;/b&gt;" style="rounded=0;whiteSpace=wrap;html=1;" vertex="1" parent="1">
          <mxGeometry x="120" y="190" width="120" height="70" as="geometry" />
        </mxCell>
        <mxCell id="UEDnsZkJq_D29mXGv6O8-17" value="&lt;b&gt;Pod&lt;/b&gt;" style="rounded=0;whiteSpace=wrap;html=1;" vertex="1" parent="1">
          <mxGeometry x="120" y="285" width="120" height="70" as="geometry" />
        </mxCell>
        <mxCell id="UEDnsZkJq_D29mXGv6O8-19" value="&lt;b&gt;Pod&lt;/b&gt;" style="rounded=0;whiteSpace=wrap;html=1;" vertex="1" parent="1">
          <mxGeometry x="120" y="380" width="120" height="70" as="geometry" />
        </mxCell>
        <mxCell id="UEDnsZkJq_D29mXGv6O8-20" value="8080" style="text;html=1;strokeColor=none;fillColor=none;align=center;verticalAlign=middle;whiteSpace=wrap;rounded=0;rotation=90;" vertex="1" parent="1">
          <mxGeometry x="224.69" y="415" width="50.62" height="20" as="geometry" />
        </mxCell>
        <mxCell id="UEDnsZkJq_D29mXGv6O8-24" value="8080" style="text;html=1;strokeColor=none;fillColor=none;align=center;verticalAlign=middle;whiteSpace=wrap;rounded=0;rotation=90;" vertex="1" parent="1">
          <mxGeometry x="224.69" y="310" width="50.62" height="20" as="geometry" />
        </mxCell>
        <mxCell id="UEDnsZkJq_D29mXGv6O8-26" value="8080" style="text;html=1;strokeColor=none;fillColor=#66CC00;align=center;verticalAlign=middle;whiteSpace=wrap;rounded=0;rotation=90;" vertex="1" parent="1">
          <mxGeometry x="224.69" y="310" width="50.62" height="20" as="geometry" />
        </mxCell>
        <mxCell id="UEDnsZkJq_D29mXGv6O8-28" value="8080" style="text;html=1;strokeColor=none;fillColor=#66CC00;align=center;verticalAlign=middle;whiteSpace=wrap;rounded=0;rotation=90;" vertex="1" parent="1">
          <mxGeometry x="224.69" y="405" width="50.62" height="20" as="geometry" />
        </mxCell>
        <mxCell id="UEDnsZkJq_D29mXGv6O8-30" value="TargetPort" style="text;html=1;strokeColor=none;fillColor=none;align=center;verticalAlign=middle;whiteSpace=wrap;rounded=0;" vertex="1" parent="1">
          <mxGeometry x="240" y="170" width="70" height="20" as="geometry" />
        </mxCell>
        <mxCell id="UEDnsZkJq_D29mXGv6O8-34" value="8080" style="text;html=1;strokeColor=none;fillColor=#66CC00;align=center;verticalAlign=middle;whiteSpace=wrap;rounded=0;rotation=90;" vertex="1" parent="1">
          <mxGeometry x="224.69" y="215" width="50.62" height="20" as="geometry" />
        </mxCell>
        <mxCell id="UEDnsZkJq_D29mXGv6O8-40" style="edgeStyle=orthogonalEdgeStyle;rounded=0;orthogonalLoop=1;jettySize=auto;html=1;entryX=0.5;entryY=0;entryDx=0;entryDy=0;" edge="1" parent="1" source="UEDnsZkJq_D29mXGv6O8-39" target="UEDnsZkJq_D29mXGv6O8-34">
          <mxGeometry relative="1" as="geometry" />
        </mxCell>
        <mxCell id="UEDnsZkJq_D29mXGv6O8-41" value="" style="edgeStyle=orthogonalEdgeStyle;rounded=0;orthogonalLoop=1;jettySize=auto;html=1;" edge="1" parent="1" source="UEDnsZkJq_D29mXGv6O8-39" target="UEDnsZkJq_D29mXGv6O8-26">
          <mxGeometry relative="1" as="geometry" />
        </mxCell>
        <mxCell id="UEDnsZkJq_D29mXGv6O8-42" style="edgeStyle=orthogonalEdgeStyle;rounded=0;orthogonalLoop=1;jettySize=auto;html=1;entryX=0.25;entryY=0;entryDx=0;entryDy=0;" edge="1" parent="1" source="UEDnsZkJq_D29mXGv6O8-39" target="UEDnsZkJq_D29mXGv6O8-20">
          <mxGeometry relative="1" as="geometry" />
        </mxCell>
        <mxCell id="UEDnsZkJq_D29mXGv6O8-39" value="&lt;b&gt;Service&lt;/b&gt;" style="rounded=0;whiteSpace=wrap;html=1;fillColor=#FFFFFF;" vertex="1" parent="1">
          <mxGeometry x="330" y="274.07" width="130" height="90" as="geometry" />
        </mxCell>
        <mxCell id="UEDnsZkJq_D29mXGv6O8-44" value="80" style="text;html=1;strokeColor=none;fillColor=#66CC00;align=center;verticalAlign=middle;whiteSpace=wrap;rounded=0;rotation=90;" vertex="1" parent="1">
          <mxGeometry x="434.68" y="306.57" width="75.63" height="25" as="geometry" />
        </mxCell>
        <mxCell id="UEDnsZkJq_D29mXGv6O8-55" style="edgeStyle=orthogonalEdgeStyle;rounded=0;orthogonalLoop=1;jettySize=auto;html=1;entryX=0.472;entryY=0.018;entryDx=0;entryDy=0;entryPerimeter=0;" edge="1" parent="1" source="UEDnsZkJq_D29mXGv6O8-47" target="UEDnsZkJq_D29mXGv6O8-44">
          <mxGeometry relative="1" as="geometry" />
        </mxCell>
        <mxCell id="UEDnsZkJq_D29mXGv6O8-47" value="32000" style="text;html=1;strokeColor=none;fillColor=#66CC00;align=center;verticalAlign=middle;whiteSpace=wrap;rounded=0;rotation=90;" vertex="1" parent="1">
          <mxGeometry x="482.5" y="302.5" width="100" height="30" as="geometry" />
        </mxCell>
        <mxCell id="UEDnsZkJq_D29mXGv6O8-50" value="" style="endArrow=classic;html=1;rounded=0;" edge="1" parent="1">
          <mxGeometry width="50" height="50" relative="1" as="geometry">
            <mxPoint x="638" y="320" as="sourcePoint" />
            <mxPoint x="550" y="320" as="targetPoint" />
            <Array as="points" />
          </mxGeometry>
        </mxCell>
        <mxCell id="UEDnsZkJq_D29mXGv6O8-56" value="10.152.183.40" style="text;html=1;strokeColor=none;fillColor=none;align=center;verticalAlign=middle;whiteSpace=wrap;rounded=0;" vertex="1" parent="1">
          <mxGeometry x="342.5" y="340" width="105" height="30" as="geometry" />
        </mxCell>
        <mxCell id="UEDnsZkJq_D29mXGv6O8-57" value="10.1.28.111" style="text;html=1;strokeColor=none;fillColor=none;align=center;verticalAlign=middle;whiteSpace=wrap;rounded=0;" vertex="1" parent="1">
          <mxGeometry x="127.5" y="425" width="105" height="30" as="geometry" />
        </mxCell>
        <mxCell id="UEDnsZkJq_D29mXGv6O8-58" value="10.1.28.100" style="text;html=1;strokeColor=none;fillColor=none;align=center;verticalAlign=middle;whiteSpace=wrap;rounded=0;" vertex="1" parent="1">
          <mxGeometry x="127.5" y="330" width="105" height="30" as="geometry" />
        </mxCell>
        <mxCell id="UEDnsZkJq_D29mXGv6O8-59" value="10.1.28.97" style="text;html=1;strokeColor=none;fillColor=none;align=center;verticalAlign=middle;whiteSpace=wrap;rounded=0;" vertex="1" parent="1">
          <mxGeometry x="127.5" y="235" width="105" height="30" as="geometry" />
        </mxCell>
        <mxCell id="UEDnsZkJq_D29mXGv6O8-61" value="&lt;b&gt;&lt;font style=&quot;font-size: 14px;&quot;&gt;Worker Node&lt;/font&gt;&lt;/b&gt;" style="text;html=1;strokeColor=none;fillColor=none;align=center;verticalAlign=middle;whiteSpace=wrap;rounded=0;" vertex="1" parent="1">
          <mxGeometry x="-79" y="391" width="108" height="30" as="geometry" />
        </mxCell>
        <mxCell id="UEDnsZkJq_D29mXGv6O8-62" value="Traffic" style="text;html=1;align=center;verticalAlign=middle;resizable=0;points=[];autosize=1;strokeColor=none;fillColor=none;fontSize=14;" vertex="1" parent="1">
          <mxGeometry x="572" y="285" width="56" height="29" as="geometry" />
        </mxCell>
        <mxCell id="UEDnsZkJq_D29mXGv6O8-63" value="" style="rounded=0;whiteSpace=wrap;html=1;" vertex="1" parent="1">
          <mxGeometry x="83" y="545" width="584" height="289" as="geometry" />
        </mxCell>
        <mxCell id="UEDnsZkJq_D29mXGv6O8-85" style="edgeStyle=orthogonalEdgeStyle;rounded=0;orthogonalLoop=1;jettySize=auto;html=1;fontSize=14;" edge="1" parent="1" source="UEDnsZkJq_D29mXGv6O8-65" target="UEDnsZkJq_D29mXGv6O8-82">
          <mxGeometry relative="1" as="geometry" />
        </mxCell>
        <mxCell id="UEDnsZkJq_D29mXGv6O8-65" value="&lt;b&gt;Pod&lt;/b&gt;" style="rounded=0;whiteSpace=wrap;html=1;" vertex="1" parent="1">
          <mxGeometry x="104.69" y="658" width="120" height="70" as="geometry" />
        </mxCell>
        <mxCell id="UEDnsZkJq_D29mXGv6O8-77" style="edgeStyle=orthogonalEdgeStyle;rounded=0;orthogonalLoop=1;jettySize=auto;html=1;fontSize=14;" edge="1" parent="1" source="UEDnsZkJq_D29mXGv6O8-66" target="UEDnsZkJq_D29mXGv6O8-75">
          <mxGeometry relative="1" as="geometry" />
        </mxCell>
        <mxCell id="UEDnsZkJq_D29mXGv6O8-78" style="edgeStyle=orthogonalEdgeStyle;rounded=0;orthogonalLoop=1;jettySize=auto;html=1;entryX=0.5;entryY=1;entryDx=0;entryDy=0;fontSize=14;" edge="1" parent="1" source="UEDnsZkJq_D29mXGv6O8-66" target="UEDnsZkJq_D29mXGv6O8-74">
          <mxGeometry relative="1" as="geometry" />
        </mxCell>
        <mxCell id="UEDnsZkJq_D29mXGv6O8-79" style="edgeStyle=orthogonalEdgeStyle;rounded=0;orthogonalLoop=1;jettySize=auto;html=1;entryX=0.5;entryY=1;entryDx=0;entryDy=0;fontSize=14;" edge="1" parent="1" source="UEDnsZkJq_D29mXGv6O8-66" target="UEDnsZkJq_D29mXGv6O8-76">
          <mxGeometry relative="1" as="geometry" />
        </mxCell>
        <mxCell id="UEDnsZkJq_D29mXGv6O8-66" value="&lt;b&gt;Service&lt;/b&gt;" style="rounded=0;whiteSpace=wrap;html=1;fillColor=#FFFFFF;" vertex="1" parent="1">
          <mxGeometry x="295" y="640" width="120" height="104" as="geometry" />
        </mxCell>
        <mxCell id="UEDnsZkJq_D29mXGv6O8-67" value="&lt;b&gt;&lt;font style=&quot;font-size: 14px;&quot;&gt;Worker Node&lt;/font&gt;&lt;/b&gt;" style="text;html=1;strokeColor=none;fillColor=none;align=center;verticalAlign=middle;whiteSpace=wrap;rounded=0;" vertex="1" parent="1">
          <mxGeometry x="83" y="842" width="108" height="30" as="geometry" />
        </mxCell>
        <mxCell id="UEDnsZkJq_D29mXGv6O8-68" value="&lt;b&gt;Pod&lt;/b&gt;" style="rounded=0;whiteSpace=wrap;html=1;" vertex="1" parent="1">
          <mxGeometry x="517" y="564" width="120" height="70" as="geometry" />
        </mxCell>
        <mxCell id="UEDnsZkJq_D29mXGv6O8-69" value="&lt;b&gt;Pod&lt;/b&gt;" style="rounded=0;whiteSpace=wrap;html=1;" vertex="1" parent="1">
          <mxGeometry x="517" y="654.5" width="120" height="70" as="geometry" />
        </mxCell>
        <mxCell id="UEDnsZkJq_D29mXGv6O8-70" value="&lt;b&gt;Pod&lt;/b&gt;" style="rounded=0;whiteSpace=wrap;html=1;" vertex="1" parent="1">
          <mxGeometry x="517" y="746" width="120" height="70" as="geometry" />
        </mxCell>
        <mxCell id="UEDnsZkJq_D29mXGv6O8-74" value="8080" style="text;html=1;strokeColor=none;fillColor=#66CC00;align=center;verticalAlign=middle;whiteSpace=wrap;rounded=0;rotation=90;" vertex="1" parent="1">
          <mxGeometry x="482.5" y="589" width="50.62" height="20" as="geometry" />
        </mxCell>
        <mxCell id="UEDnsZkJq_D29mXGv6O8-75" value="8080" style="text;html=1;strokeColor=none;fillColor=#66CC00;align=center;verticalAlign=middle;whiteSpace=wrap;rounded=0;rotation=90;" vertex="1" parent="1">
          <mxGeometry x="480" y="682.5" width="50.62" height="20" as="geometry" />
        </mxCell>
        <mxCell id="UEDnsZkJq_D29mXGv6O8-76" value="8080" style="text;html=1;strokeColor=none;fillColor=#66CC00;align=center;verticalAlign=middle;whiteSpace=wrap;rounded=0;rotation=90;" vertex="1" parent="1">
          <mxGeometry x="482.5" y="771" width="50.62" height="20" as="geometry" />
        </mxCell>
        <mxCell id="UEDnsZkJq_D29mXGv6O8-82" value="80" style="text;html=1;strokeColor=none;fillColor=#66CC00;align=center;verticalAlign=middle;whiteSpace=wrap;rounded=0;rotation=90;" vertex="1" parent="1">
          <mxGeometry x="248" y="680.5" width="75.63" height="25" as="geometry" />
        </mxCell>
        <mxCell id="UEDnsZkJq_D29mXGv6O8-86" value="10.1.28.111" style="text;html=1;strokeColor=none;fillColor=none;align=center;verticalAlign=middle;whiteSpace=wrap;rounded=0;" vertex="1" parent="1">
          <mxGeometry x="524.5" y="609" width="105" height="30" as="geometry" />
        </mxCell>
        <mxCell id="UEDnsZkJq_D29mXGv6O8-87" value="10.1.28.112" style="text;html=1;strokeColor=none;fillColor=none;align=center;verticalAlign=middle;whiteSpace=wrap;rounded=0;" vertex="1" parent="1">
          <mxGeometry x="524.5" y="700" width="105" height="30" as="geometry" />
        </mxCell>
        <mxCell id="UEDnsZkJq_D29mXGv6O8-88" value="10.1.28.113" style="text;html=1;strokeColor=none;fillColor=none;align=center;verticalAlign=middle;whiteSpace=wrap;rounded=0;" vertex="1" parent="1">
          <mxGeometry x="528" y="791" width="105" height="30" as="geometry" />
        </mxCell>
        <mxCell id="UEDnsZkJq_D29mXGv6O8-91" value="10.152.183.232" style="text;html=1;strokeColor=none;fillColor=none;align=center;verticalAlign=middle;whiteSpace=wrap;rounded=0;" vertex="1" parent="1">
          <mxGeometry x="300" y="721" width="105" height="30" as="geometry" />
        </mxCell>
        <mxCell id="UEDnsZkJq_D29mXGv6O8-92" value="TargetPort" style="text;html=1;strokeColor=none;fillColor=none;align=center;verticalAlign=middle;whiteSpace=wrap;rounded=0;" vertex="1" parent="1">
          <mxGeometry x="447.5" y="554" width="70" height="20" as="geometry" />
        </mxCell>
      </root>
    </mxGraphModel>
  </diagram>
</mxfile>
